<svg width="68" height="76" viewBox="0 0 68 76" fill="none" xmlns="http://www.w3.org/2000/svg">
<g filter="url(#filter0_d_56_539)">
<rect x="16" y="12" width="36" height="36" rx="18" fill="white" shape-rendering="crispEdges"/>
<path d="M33.134 55.5C33.5189 56.1667 34.4811 56.1667 34.866 55.5L40.0622 46.5C40.4471 45.8333 39.966 45 39.1962 45H28.8038C28.034 45 27.5529 45.8333 27.9378 46.5L33.134 55.5Z" fill="white"/>
<rect x="20" y="16" width="28" height="28" rx="14" fill="#F79009"/>
<mask id="mask0_56_539" style="mask-type:alpha" maskUnits="userSpaceOnUse" x="26" y="22" width="16" height="16">
<rect x="26" y="22" width="16" height="16" fill="#D9D9D9"/>
</mask>
<g mask="url(#mask0_56_539)">
<path d="M31 36.6667C30.3556 36.6667 29.8056 36.4389 29.35 35.9834C28.8945 35.5278 28.6667 34.9778 28.6667 34.3334V25.6667C28.6667 25.0223 28.8945 24.4723 29.35 24.0167C29.8056 23.5612 30.3556 23.3334 31 23.3334H39.3334V33.3334C39.0556 33.3334 38.8195 33.4306 38.625 33.625C38.4306 33.8195 38.3334 34.0556 38.3334 34.3334C38.3334 34.6112 38.4306 34.8473 38.625 35.0417C38.8195 35.2362 39.0556 35.3334 39.3334 35.3334V36.6667H31ZM30 32.2167C30.1556 32.1389 30.3167 32.0834 30.4834 32.05C30.65 32.0167 30.8222 32 31 32H31.3334V24.6667H31C30.7222 24.6667 30.4861 24.7639 30.2917 24.9584C30.0972 25.1528 30 25.3889 30 25.6667V32.2167ZM32.6667 32H38V24.6667H32.6667V32ZM31 35.3334H37.2167C37.15 35.1778 37.0972 35.0195 37.0584 34.8584C37.0195 34.6973 37 34.5223 37 34.3334C37 34.1556 37.0167 33.9834 37.05 33.8167C37.0834 33.65 37.1389 33.4889 37.2167 33.3334H31C30.7111 33.3334 30.4722 33.4306 30.2834 33.625C30.0945 33.8195 30 34.0556 30 34.3334C30 34.6223 30.0945 34.8612 30.2834 35.05C30.4722 35.2389 30.7111 35.3334 31 35.3334Z" fill="white"/>
</g>
</g>
<defs>
<filter id="filter0_d_56_539" x="0" y="0" width="68" height="76" filterUnits="userSpaceOnUse" color-interpolation-filters="sRGB">
<feFlood flood-opacity="0" result="BackgroundImageFix"/>
<feColorMatrix in="SourceAlpha" type="matrix" values="0 0 0 0 0 0 0 0 0 0 0 0 0 0 0 0 0 0 127 0" result="hardAlpha"/>
<feOffset dy="4"/>
<feGaussianBlur stdDeviation="8"/>
<feComposite in2="hardAlpha" operator="out"/>
<feColorMatrix type="matrix" values="0 0 0 0 0 0 0 0 0 0 0 0 0 0 0 0 0 0 0.1 0"/>
<feBlend mode="normal" in2="BackgroundImageFix" result="effect1_dropShadow_56_539"/>
<feBlend mode="normal" in="SourceGraphic" in2="effect1_dropShadow_56_539" result="shape"/>
</filter>
</defs>
</svg>
